#!OML:ASF E:\Style4\Style4.ASF
:FULLY-SPECIFIED
:DEGREES
3488
root -1.71045 16.6989 -2.17298 8.35904 12.7014 3.60326
lowerback 18.899 2.51014 -0.31852
upperback 8.17051 3.24893 -0.80004
thorax -1.75356 1.65017 -1.30999
lowerneck -4.1809 3.86832 -2.24889
upperneck 3.47404 5.39111 -2.17094
head 1.78889 2.60764 -0.150283
rclavicle -1.98785e-014 3.97569e-014
rhumerus 22.3162 32.0888 -40.5932
rradius 61.7015
rwrist -5.71558
rhand -6.88109 9.40803
rfingers 7.12502
rthumb 18.9852 -19.6854
lclavicle -1.98785e-014 3.97569e-014
lhumerus 29.1944 -41.7694 27.3887
lradius 75.4618
lwrist 2.50249
lhand 1.82241 25.1122
lfingers 7.12502
lthumb 27.3347 53.1503
rfemur -39.7503 -11.9178 23.5081
rtibia 57.9446
rfoot -26.5128 -18.4503
rtoes -4.01182
lfemur -40.5928 -2.6224 -16.4076
ltibia 52.5014
lfoot -17.6019 0.505387
ltoes -17.6757
3489
root -1.71954 16.7075 -2.15823 8.40245 12.8496 3.59176
lowerback 18.7897 2.51318 -0.257046
upperback 8.13115 3.26425 -0.810652
thorax -1.7354 1.65942 -1.35471
lowerneck -4.10991 3.8491 -2.20599
upperneck 3.50023 5.3618 -2.18379
head 1.78639 2.59329 -0.163437
rclavicle -3.97569e-016 -9.14409e-015
rhumerus 22.232 32.9467 -39.9417
rradius 62.6743
rwrist -6.46282
rhand -6.50222 9.09558
rfingers 7.12502
rthumb 19.3495 -19.9617
lclavicle -3.97569e-016 -9.14409e-015
lhumerus 29.1078 -42.233 26.6974
lradius 76.7564
lwrist 3.18337
lhand 4.00137 24.918
lfingers 7.12502
lthumb 29.417 52.6092
rfemur -39.649 -12.005 23.5773
rtibia 57.7841
rfoot -26.4789 -18.6014
rtoes -4.38303
lfemur -40.545 -2.66685 -16.3506
ltibia 52.3869
lfoot -17.4939 0.41932
ltoes -17.5389
3490
root -1.72728 16.7167 -2.14313 8.45178 12.9725 3.62732
lowerback 18.6658 2.53431 -0.198997
upperback 8.09055 3.30107 -0.863719
thorax -1.70788 1.68012 -1.44566
lowerneck -4.07426 3.81805 -2.10967
upperneck 3.60279 5.31715 -2.20249
head 1.81666 2.57017 -0.185877
rclavicle -4.73108e-014 2.22639e-014
rhumerus 22.0321 33.7127 -39.3705
rradius 63.7145
rwrist -7.24086
rhand -5.90178 8.88604
rfingers 7.12502
rthumb 19.9268 -20.1123
lclavicle -4.73108e-014 2.22639e-014
lhumerus 29.0514 -42.7062 26.0172
lradius 78.022
lwrist 4.00503
lhand 5.85541 24.6359
lfingers 7.12502
lthumb 31.1855 52.0019
rfemur -39.5289 -12.0761 23.5728
rtibia 57.6338
rfoot -26.5461 -18.5872
rtoes -4.22313
lfemur -40.4858 -2.69891 -16.3598
ltibia 52.2613
lfoot -17.4068 0.352425
ltoes -17.4295
3491
root -1.73463 16.7253 -2.13036 8.48408 13.1144 3.71877
lowerback 18.5599 2.53182 -0.20945
upperback 8.09444 3.29674 -0.911623
thorax -1.64703 1.6795 -1.48402
lowerneck -4.1639 3.80066 -2.0885
upperneck 3.75851 5.29952 -2.19567
head 1.8837 2.55827 -0.183785
rclavicle -3.97569e-015 2.78299e-015
rhumerus 21.973 34.4855 -38.7304
rradius 64.7588
rwrist -8.20264
rhand -5.34878 8.74193
rfingers 7.12502
rthumb 20.4583 -20.2003
lclavicle -3.97569e-015 2.78299e-015
lhumerus 28.8493 -43.021 25.4726
lradius 79.3312
lwrist 5.01758
lhand 7.26083 24.1341
lfingers 7.12502
lthumb 32.5239 51.2335
rfemur -39.4069 -12.1806 23.5067
rtibia 57.4937
rfoot -26.5938 -18.5688
rtoes -4.03424
lfemur -40.4231 -2.7731 -16.4293
ltibia 52.134
lfoot -17.2701 0.361976
ltoes -17.5626
3492
root -1.7433 16.733 -2.11789 8.48985 13.2421 3.79541
lowerback 18.478 2.53204 -0.244074
upperback 8.12546 3.29296 -0.935259
thorax -1.57228 1.6784 -1.48364
lowerneck -4.31019 3.79132 -2.1399
upperneck 3.89258 5.29712 -2.16382
head 1.9512 2.55356 -0.160439
rclavicle 3.81667e-014 -1.59028e-015
rhumerus 21.9661 35.2224 -38.1088
rradius 65.7741
rwrist -9.23641
rhand -4.86609 8.59161
rfingers 7.12502
rthumb 20.9221 -20.3001
lclavicle 3.81667e-014 -1.59028e-015
lhumerus 28.5941 -43.2233 25.0098
lradius 80.7022
lwrist 6.00084
lhand 8.76952 23.6153
lfingers 7.12502
lthumb 33.9584 50.4083
rfemur -39.2612 -12.2359 23.4582
rtibia 57.3419
rfoot -26.5273 -18.7855
rtoes -4.52005
lfemur -40.3353 -2.83141 -16.4713
ltibia 52.0109
lfoot -17.1512 0.317414
ltoes -17.781
3493
root -1.75335 16.7428 -2.10489 8.48455 13.3906 3.74831
lowerback 18.3821 2.543 -0.157926
upperback 8.13358 3.32372 -0.923648
thorax -1.50955 1.69616 -1.52067
lowerneck -4.29002 3.77962 -2.13893
upperneck 3.89577 5.28112 -2.16812
head 1.94879 2.5456 -0.162816
rclavicle -7.95139e-015 -4.77083e-015
rhumerus 21.8407 35.9119 -37.5696
rradius 66.803
rwrist -10.4109
rhand -4.2947 8.45124
rfingers 7.12502
rthumb 21.4709 -20.3789
lclavicle -7.95139e-015 -4.77083e-015
lhumerus 28.4421 -43.5057 24.4908
lradius 82.1559
lwrist 7.12789
lhand 10.2474 23.4526
lfingers 7.12502
lthumb 35.361 49.9236
rfemur -39.1048 -12.2642 23.5473
rtibia 57.1583
rfoot -26.4816 -18.9828
rtoes -4.77993
lfemur -40.279 -2.86362 -16.3743
ltibia 51.8997
lfoot -17.0543 0.304501
ltoes -18.1869
3494
root -1.76164 16.7555 -2.09277 8.50725 13.546 3.69468
lowerback 18.2952 2.53727 -0.0606826
upperback 8.09093 3.33353 -0.907044
thorax -1.50575 1.70284 -1.55675
lowerneck -4.20855 3.78809 -2.14423
upperneck 3.91121 5.29058 -2.1706
head 1.93914 2.55048 -0.164077
rclavicle -8.74653e-015 2.0276e-014
rhumerus 21.6911 36.7274 -37.0648
rradius 67.8317
rwrist -11.6164
rhand -3.90037 8.32339
rfingers 7.12502
rthumb 21.8496 -20.463
lclavicle -8.74653e-015 2.0276e-014
lhumerus 28.1509 -43.805 24.1153
lradius 83.6388
lwrist 8.67093
lhand 11.46 23.6422
lfingers 7.12502
lthumb 36.5097 49.8318
rfemur -38.9681 -12.3187 23.6461
rtibia 56.953
rfoot -26.4866 -18.9407
rtoes -4.27563
lfemur -40.2763 -2.89591 -16.2826
ltibia 51.7947
lfoot -16.9522 0.363955
ltoes -18.7374
3495
root -1.76779 16.77 -2.08055 8.51729 13.6748 3.68674
lowerback 18.2616 2.53681 0.00610399
upperback 8.03827 3.3434 -0.921661
thorax -1.53972 1.7091 -1.61156
lowerneck -4.19434 3.77646 -2.13249
upperneck 4.01262 5.27524 -2.14289
head 1.96919 2.54188 -0.156885
rclavicle 1.59028e-014 -1.03368e-014
rhumerus 21.4767 37.5247 -36.7046
rradius 68.8116
rwrist -12.5844
rhand -3.7723 8.26856
rfingers 7.12502
rthumb 21.9726 -20.5035
lclavicle 1.59028e-014 -1.03368e-014
lhumerus 27.8187 -44.0882 23.7369
lradius 85.164
lwrist 10.7812
lhand 12.5291 23.6852
lfingers 7.12502
lthumb 37.521 49.6132
rfemur -38.7833 -12.39 23.677
rtibia 56.7241
rfoot -26.5224 -18.8098
rtoes -3.59648
lfemur -40.2277 -2.93169 -16.2496
ltibia 51.6815
lfoot -16.7749 0.253232
ltoes -18.3261
3496
root -1.77413 16.784 -2.06685 8.50186 13.827 3.7361
lowerback 18.2329 2.53437 0.0112455
upperback 8.01963 3.34107 -0.949352
thorax -1.54285 1.70881 -1.64231
lowerneck -4.16745 3.75715 -2.14393
upperneck 4.07043 5.24838 -2.09494
head 1.98146 2.52863 -0.140692
rclavicle 5.00937e-014 1.70955e-014
rhumerus 21.3054 38.2946 -36.3398
rradius 69.7288
rwrist -13.4655
rhand -3.77803 8.2478
rfingers 7.12502
rthumb 21.9671 -20.5249
lclavicle 5.00937e-014 1.70955e-014
lhumerus 27.4305 -44.299 23.3888
lradius 86.8171
lwrist 12.9233
lhand 13.717 23.857
lfingers 7.12502
lthumb 38.6426 49.4784
rfemur -38.5545 -12.4968 23.6377
rtibia 56.5004
rfoot -26.4821 -18.9562
rtoes -4.0423
lfemur -40.1086 -2.96553 -16.2902
ltibia 51.5489
lfoot -16.5312 0.0361392
ltoes -17.7393
3497
root -1.78367 16.798 -2.05222 8.53271 13.9667 3.79325
lowerback 18.1476 2.55627 -0.0149819
upperback 8.00905 3.36618 -0.96774
thorax -1.50984 1.72153 -1.64764
lowerneck -4.18259 3.7228 -2.18074
upperneck 4.09631 5.20357 -2.04672
head 1.99016 2.50639 -0.12017
rclavicle 5.56597e-014 -4.05521e-014
rhumerus 21.1808 39.0438 -35.9106
rradius 70.603
rwrist -14.2642
rhand -3.94883 8.28452
rfingers 7.12502
rthumb 21.8031 -20.5073
lclavicle 5.56597e-014 -4.05521e-014
lhumerus 27.0339 -44.416 23.1326
lradius 88.502
lwrist 14.9024
lhand 15.0008 24.2034
lfingers 7.12502
lthumb 39.8524 49.4738
rfemur -38.3805 -12.5565 23.616
rtibia 56.2735
rfoot -26.4353 -19.122
rtoes -4.60949
lfemur -40.029 -2.97637 -16.3304
ltibia 51.41
lfoot -16.2642 -0.0506076
ltoes -17.4503
3498
root -1.79445 16.8119 -2.03933 8.54524 14.1147 3.84332
lowerback 18.1142 2.59682 -0.00499609
upperback 7.99413 3.42082 -0.987957
thorax -1.50506 1.74955 -1.68352
lowerneck -4.19786 3.66912 -2.20148
upperneck 4.14187 5.1313 -1.97505
head 2.00515 2.47094 -0.0955409
rclavicle 7.39479e-014 -2.74323e-014
rhumerus 20.9362 39.6974 -35.581
rradius 71.4587
rwrist -14.8764
rhand -4.04822 8.23138
rfingers 7.12502
rthumb 21.7077 -20.5715
lclavicle 7.39479e-014 -2.74323e-014
lhumerus 26.731 -44.4642 22.8745
lradius 90.2109
lwrist 16.9097
lhand 16.2303 24.344
lfingers 7.12502
lthumb 41.0084 49.2578
rfemur -38.2136 -12.5886 23.5987
rtibia 56.0701
rfoot -26.4755 -19.0881
rtoes -3.95133
lfemur -39.94 -2.99834 -16.3634
ltibia 51.266
lfoot -16.0787 0.0533515
ltoes -17.8296
3499
root -1.80297 16.8263 -2.02827 8.51184 14.3159 3.83242
lowerback 18.1255 2.61547 0.0759388
upperback 7.98869 3.45954 -0.971564
thorax -1.51192 1.77063 -1.71978
lowerneck -4.26945 3.60813 -2.22795
upperneck 4.26137 5.0555 -1.94324
head 2.05568 2.43097 -0.0803411
rclavicle -5.96354e-015 1.90833e-014
rhumerus 20.6516 40.2974 -35.2935
rradius 72.342
rwrist -15.3604
rhand -4.0577 8.09019
rfingers 7.12502
rthumb 21.6985 -20.7138
lclavicle -5.96354e-015 1.90833e-014
lhumerus 26.4602 -44.444 22.6516
lradius 91.8722
lwrist 18.8814
lhand 17.4788 24.2734
lfingers 7.12502
lthumb 42.1796 48.803
rfemur -37.9982 -12.656 23.6399
rtibia 55.8718
rfoot -26.5706 -19.0482
rtoes -3.24483
lfemur -39.8548 -3.03727 -16.3406
ltibia 51.1336
lfoot -15.831 -0.100588
ltoes -17.2798
3500
root -1.80858 16.8401 -2.01628 8.52698 14.4667 3.88484
lowerback 18.0843 2.63734 0.0789872
upperback 7.9685 3.48869 -0.993225
thorax -1.50972 1.78579 -1.74823
lowerneck -4.31322 3.57807 -2.20526
upperneck 4.38984 5.01685 -1.90746
head 2.1054 2.41041 -0.0715368
rclavicle -3.18055e-015 -3.18055e-015
rhumerus 20.3739 40.9774 -35.0216
rradius 73.2451
rwrist -15.7588
rhand -4.23808 8.03109
rfingers 7.12502
rthumb 21.5253 -20.7928
lclavicle -3.18055e-015 -3.18055e-015
lhumerus 26.0392 -44.3979 22.4717
lradius 93.5976
lwrist 20.941
lhand 18.7457 24.5314
lfingers 7.12502
lthumb 43.3649 48.6472
rfemur -37.8169 -12.7527 23.6098
rtibia 55.6892
rfoot -26.6376 -19.0145
rtoes -2.9962
lfemur -39.7995 -3.05654 -16.409
ltibia 51.0102
lfoot -15.5789 -0.157972
ltoes -17.615
